<svg id="visual" viewBox="0 0 900 600" width="900" height="600" xmlns="http://www.w3.org/2000/svg" xmlns:xlink="http://www.w3.org/1999/xlink" version="1.1"><path d="M0 67L16.7 67C33.3 67 66.7 67 100 76C133.3 85 166.7 103 200 108C233.3 113 266.7 105 300 106C333.3 107 366.7 117 400 106C433.3 95 466.7 63 500 57C533.3 51 566.7 71 600 87C633.3 103 666.7 115 700 107C733.3 99 766.7 71 800 64C833.3 57 866.7 71 883.3 78L900 85L900 0L883.3 0C866.7 0 833.3 0 800 0C766.7 0 733.3 0 700 0C666.7 0 633.3 0 600 0C566.7 0 533.3 0 500 0C466.7 0 433.3 0 400 0C366.7 0 333.3 0 300 0C266.7 0 233.3 0 200 0C166.7 0 133.3 0 100 0C66.7 0 33.3 0 16.7 0L0 0Z" fill="#8f2a48"></path><path d="M0 217L16.7 222C33.3 227 66.7 237 100 265C133.3 293 166.7 339 200 349C233.3 359 266.7 333 300 300C333.3 267 366.7 227 400 226C433.3 225 466.7 263 500 276C533.3 289 566.7 277 600 269C633.3 261 666.7 257 700 257C733.3 257 766.7 261 800 268C833.3 275 866.7 285 883.3 290L900 295L900 83L883.3 76C866.7 69 833.3 55 800 62C766.7 69 733.3 97 700 105C666.7 113 633.3 101 600 85C566.7 69 533.3 49 500 55C466.7 61 433.3 93 400 104C366.7 115 333.3 105 300 104C266.7 103 233.3 111 200 106C166.7 101 133.3 83 100 74C66.7 65 33.3 65 16.7 65L0 65Z" fill="#ca4b6d"></path><path d="M0 319L16.7 325C33.3 331 66.7 343 100 358C133.3 373 166.7 391 200 400C233.3 409 266.7 409 300 377C333.3 345 366.7 281 400 267C433.3 253 466.7 289 500 313C533.3 337 566.7 349 600 347C633.3 345 666.7 329 700 329C733.3 329 766.7 345 800 353C833.3 361 866.7 361 883.3 361L900 361L900 293L883.3 288C866.7 283 833.3 273 800 266C766.7 259 733.3 255 700 255C666.7 255 633.3 259 600 267C566.7 275 533.3 287 500 274C466.7 261 433.3 223 400 224C366.7 225 333.3 265 300 298C266.7 331 233.3 357 200 347C166.7 337 133.3 291 100 263C66.7 235 33.3 225 16.7 220L0 215Z" fill="#da7991"></path><path d="M0 439L16.7 432C33.3 425 66.7 411 100 416C133.3 421 166.7 445 200 469C233.3 493 266.7 517 300 490C333.3 463 366.7 385 400 364C433.3 343 466.7 379 500 404C533.3 429 566.7 443 600 429C633.3 415 666.7 373 700 381C733.3 389 766.7 447 800 471C833.3 495 866.7 485 883.3 480L900 475L900 359L883.3 359C866.7 359 833.3 359 800 351C766.7 343 733.3 327 700 327C666.7 327 633.3 343 600 345C566.7 347 533.3 335 500 311C466.7 287 433.3 251 400 265C366.7 279 333.3 343 300 375C266.7 407 233.3 407 200 398C166.7 389 133.3 371 100 356C66.7 341 33.3 329 16.7 323L0 317Z" fill="#ca4b6d"></path><path d="M0 601L16.7 601C33.3 601 66.7 601 100 601C133.3 601 166.7 601 200 601C233.3 601 266.7 601 300 601C333.3 601 366.7 601 400 601C433.3 601 466.7 601 500 601C533.3 601 566.7 601 600 601C633.3 601 666.7 601 700 601C733.3 601 766.7 601 800 601C833.3 601 866.7 601 883.3 601L900 601L900 473L883.3 478C866.7 483 833.3 493 800 469C766.7 445 733.3 387 700 379C666.7 371 633.3 413 600 427C566.7 441 533.3 427 500 402C466.7 377 433.3 341 400 362C366.7 383 333.3 461 300 488C266.7 515 233.3 491 200 467C166.7 443 133.3 419 100 414C66.7 409 33.3 423 16.7 430L0 437Z" fill="#8f2a48"></path></svg>