<?xml version="1.0" encoding="utf-8"?>
<!-- Generator: Adobe Illustrator 23.1.0, SVG Export Plug-In . SVG Version: 6.00 Build 0)  -->
<svg version="1.1" xmlns="http://www.w3.org/2000/svg" xmlns:xlink="http://www.w3.org/1999/xlink" x="0px" y="0px"
	 viewBox="0 0 5000 5000" style="enable-background:new 0 0 5000 5000;" xml:space="preserve">
<style type="text/css">
	.st0{fill:#E95353;}
	.st1{fill:#168DE2;}
	.st2{fill:#FFFFFF;}
	.st3{fill:#FFE21F;}
	.st4{fill:#454545;}
	.st5{fill:#ED6262;}
	.st6{fill:#FFBD49;}
	.st7{fill:#FFDB6F;}
	.st8{fill:#6F6F6F;}
	.st9{fill:#777777;}
	.st10{fill:#3AA2EB;}
	.st11{fill:#444444;}
	.st12{fill:#EFC46F;}
	.st13{fill:#F4BA51;}
	.st14{fill:#DB4E33;}
	.st15{fill:#656566;}
	.st16{fill:#545456;}
	.st17{fill:#5085BA;}
	.st18{fill:#3A77AA;}
	.st19{fill:#F2C051;}
	.st20{fill:#E5A642;}
	.st21{fill:#ED694A;}
	.st22{fill:#A5856A;}
	.st23{fill:#84644D;}
	.st24{fill:#FFD5B3;}
	.st25{fill:#08375E;}
	.st26{fill:#9EA7AF;}
	.st27{fill:#C5CCD3;}
	.st28{fill:#368C0E;}
	.st29{fill:#FFB98A;}
	.st30{fill:#775436;}
	.st31{fill:#EF5050;}
	.st32{opacity:0.1;enable-background:new    ;}
	.st33{fill:#F7931E;}
	.st34{opacity:0.1;}
	.st35{fill:#FCDB67;}
	.st36{fill:#046699;}
	.st37{fill:#58565C;}
	.st38{fill:#49484D;}
	.st39{fill:#00BCE7;}
	.st40{fill:#0094D4;}
	.st41{fill:#B6E3EE;}
	.st42{fill:#FFD151;}
	.st43{fill:#F79B4A;}
	.st44{fill:#96D2E0;}
	.st45{fill:#0076B5;}
</style>
<g id="Layer_1">
	<g>
		<path class="st0" d="M790.4,2036c-0.7-14.6-6.2-28.7-15.1-40.3c-20.2-26.2-24.1-47.1-24.1-47.1c-15.8-41.5-29.9-69.1-40.2-86.6
			c-10.9-18.4-29.7-30.8-50.9-33.5c-42.7-5.5-176-5.5-218.6,0c-21.2,2.7-40,15.1-50.9,33.5c-10.3,17.5-24.4,45.2-40.2,86.6
			c0,0-3.9,20.8-24.1,47.1c-8.9,11.6-14.4,25.7-15.1,40.3c-1.5,31.8,7.7,38.7,15.9,110.6c0.6,5.7,5.4,9.9,11.1,9.9h425.2
			c5.7,0,10.5-4.3,11.1-9.9c2.3-20.2,9.2-61,9.2-61C789.7,2065.3,791,2048.7,790.4,2036z"/>
		<path class="st1" d="M742.3,1947c-12.5-31.2-25.2-58.5-37.9-80.2c-9.6-16.4-26.5-27.9-45.3-30.4c-42.8-5.7-174.2-5.6-216.7,0
			c-18.7,2.5-35.7,14-45.3,30.4c-12.8,22-25.7,49.7-38,80.2C486.7,1957.1,614.7,1957.1,742.3,1947z"/>
		<path class="st2" d="M724.2,1983.1c-4.9,1.5-9.4,3.7-13.2,5.8c-6.9,3.9-14,7.4-21.4,10.2c-12.3,4.7-14.3,11.6-14.3,11.6
			c-0.4,0.5-0.7,1-1.1,1.4c-9.3,13.8,2.9,32.2,19.4,29.9c23.9-3.4,43.5-10.3,53.5-14.3c5.7-2.3,10.2-7.1,11.6-13.1
			c0.1-0.6,0.3-1.1,0.4-1.7C762.8,1993.3,743.4,1977.1,724.2,1983.1z"/>
		<path class="st3" d="M749.7,2093.9h-26.5c-4,0-6,4.8-3.2,7.7l26.5,26.5c2.8,2.8,7.7,0.8,7.7-3.2v-26.5
			C754.1,2095.9,752.1,2093.9,749.7,2093.9z"/>
		<path class="st4" d="M774.5,2146.6c-0.6,5.7-5.4,9.9-11.1,9.9h-51.1v29.6c0,10.5,8.5,19,19,19h32.1c10.5,0,19-8.5,19-19v-92.8
			C780.3,2106.2,776.2,2131.9,774.5,2146.6z"/>
		<path class="st5" d="M796.9,1926.3c-1.5-6.9-8-11.6-15.1-11.6H769c-8.2,0-14.9,6.7-14.9,14.9v9.1h-6.8l3.9,9.3h14.9
			c7.7,0,15.4-1.7,22.4-4.9C794.9,1940.2,798.5,1933.2,796.9,1926.3z"/>
		<circle class="st6" cx="732.6" cy="2007.1" r="18.7"/>
		<circle class="st7" cx="695" cy="2021.8" r="13.7"/>
		<polygon class="st8" points="659.4,2021.8 637.9,2059.2 463.6,2059.2 442.1,2021.8 		"/>
		<path class="st2" d="M427.4,2012.2c-0.3-0.5-0.7-1-1.1-1.4c0,0-2.1-6.9-14.3-11.6c-7.4-2.8-14.5-6.4-21.4-10.2
			c-3.8-2.1-8.3-4.3-13.2-5.8c-19.2-6-38.6,10.1-35,29.9c0.1,0.6,0.2,1.1,0.4,1.7c1.5,6,5.9,10.8,11.6,13.1
			c10,4,29.6,10.9,53.5,14.3C424.4,2044.4,436.7,2026,427.4,2012.2z"/>
		<path class="st3" d="M378.4,2093.9h-26.5c-2.5,0-4.5,2-4.5,4.5v26.5c0,4,4.8,6,7.7,3.2l26.5-26.5
			C384.4,2098.7,382.4,2093.9,378.4,2093.9z"/>
		<path class="st9" d="M727.5,2140.2c-27.6-47.8-59.4-46.3-59.4-46.3H433.4c0,0-31.8-1.5-59.4,46.3h-47.8l0.6,6.2
			c0.5,5.8,5.4,10.2,11.2,10.2h425.5c5.8,0,10.6-4.4,11.2-10.2l0.6-6.2L727.5,2140.2L727.5,2140.2z"/>
		<path class="st4" d="M338.2,2156.6c-5.7,0-10.5-4.3-11.1-9.9c-1.7-14.7-5.8-40.4-7.9-53.2v92.8c0,10.5,8.5,19,19,19h32.1
			c10.5,0,19-8.5,19-19v-29.6L338.2,2156.6L338.2,2156.6z"/>
		<path class="st5" d="M347.4,1938.7v-9.1c0-8.2-6.7-14.9-14.9-14.9h-12.8c-7.1,0-13.6,4.7-15.1,11.6c-1.6,6.9,2,13.9,8.3,16.8
			c7,3.2,14.7,4.9,22.4,4.9h14.9l3.9-9.3L347.4,1938.7C347.4,1938.7,347.4,1938.7,347.4,1938.7z"/>
		<circle class="st6" cx="369" cy="2007.1" r="18.7"/>
		<circle class="st7" cx="406.6" cy="2021.8" r="13.7"/>
		<g>
			<path class="st8" d="M650.1,2106.9H451.4c-3.1,0-5.6,2.5-5.6,5.6c0,3.1,2.5,5.6,5.6,5.6h198.7c3.1,0,5.6-2.5,5.6-5.6
				C655.8,2109.5,653.2,2106.9,650.1,2106.9z"/>
			<path class="st8" d="M650.1,2129.4H451.4c-3.1,0-5.6,2.5-5.6,5.6c0,3.1,2.5,5.6,5.6,5.6h198.7c3.1,0,5.6-2.5,5.6-5.6
				C655.8,2131.9,653.2,2129.4,650.1,2129.4z"/>
		</g>
		<path class="st10" d="M721.4,1899.4v1.9c0,7.7-6.4,14-14.3,13.6c-7.3-0.5-12.9-7-12.9-14.4v-27.6c0-6.5-5.4-11.5-11.9-11.3
			c-0.2,0-0.2,0-0.3,0c0,0,0,0-0.2,0c-6.5-0.2-11.9,4.8-11.9,11.3v25c0,7.7-6.7,14-14.4,13.5c-7.3-0.3-12.9-7-12.9-14.3v-21.7
			c0-6.5-5.4-11.9-12.1-11.9h-0.9c-6.2,0-11.3,5.1-11.3,11.3v28.3c0,7.7-6.5,13.9-14.4,13.6c-7.3-0.5-12.7-7-12.7-14.4v-37.9
			c0-6-5.3-11.2-11.5-10.7h-0.9c-6.4,0-11.5,5.1-11.5,11.3v38.7c0,7.4-6,13.6-13.6,13.6c-7.3,0-13.3-5.9-13.5-13.2v-32.5
			c0-7.4-5.6-13.9-12.9-14.4c-7.9-0.3-14.3,5.9-14.3,13.6l-0.2,30c0,7.7-6.3,13.9-14.3,13.6c-7.1-0.4-12.6-6.7-12.8-13.8v-35.3
			c0-7.3-5.5-13.9-12.8-14.3c-7.8-0.3-14.3,5.8-14.3,13.6v36.9c-0.2,7.6-6.6,13.6-14.3,13.3c-7.3-0.5-12.7-7-12.7-14.4v-27.7
			c0-6.5-5.6-11.5-12.1-11.3c-0.2,0-0.2,0-0.2,0c-0.2,0-0.2,0-0.2,0c-6.7-0.2-12.1,4.8-12.1,11.3v25c0,7.7-6.5,14-14.3,13.5
			c-6.7-0.3-11.8-5.9-12.6-12.4c-7.2,14.8-14.3,30.9-21.2,48.1c127.5,10,255.6,10,383.1,0C735.4,1929.8,728.4,1913.9,721.4,1899.4z"
			/>
	</g>
	<g>
		<path class="st0" d="M790.3,2999.8c-0.7-14.6-6.2-28.7-15.1-40.3c-20.2-26.2-24.1-47.1-24.1-47.1c-15.8-41.5-29.9-69.1-40.2-86.6
			c-10.9-18.4-29.7-30.8-50.9-33.5c-42.7-5.5-176-5.5-218.6,0c-21.2,2.7-40,15.1-50.9,33.5c-10.3,17.5-24.4,45.2-40.2,86.6
			c0,0-3.9,20.8-24.1,47.1c-8.9,11.6-14.4,25.7-15.1,40.3c-1.5,31.8,7.7,38.7,15.9,110.6c0.6,5.7,5.4,9.9,11.1,9.9h425.2
			c5.7,0,10.5-4.3,11.1-9.9c2.3-20.2,9.2-61,9.2-61C789.6,3029.1,790.9,3012.5,790.3,2999.8z"/>
		<path class="st1" d="M742.2,2910.8c-12.5-31.2-25.2-58.5-37.9-80.2c-9.6-16.4-26.5-27.9-45.3-30.4c-42.8-5.7-174.2-5.6-216.7,0
			c-18.7,2.5-35.7,14-45.3,30.4c-12.8,22-25.7,49.7-38,80.2C486.6,2920.9,614.7,2920.9,742.2,2910.8z"/>
		<path class="st2" d="M724.1,2946.9c-4.9,1.5-9.4,3.7-13.2,5.8c-6.9,3.9-14,7.4-21.4,10.2c-12.3,4.7-14.3,11.6-14.3,11.6
			c-0.4,0.5-0.7,1-1.1,1.4c-9.3,13.8,2.9,32.2,19.4,29.9c23.9-3.4,43.5-10.3,53.5-14.3c5.7-2.3,10.2-7.1,11.6-13.1
			c0.1-0.6,0.3-1.1,0.4-1.7C762.7,2957.1,743.3,2940.9,724.1,2946.9z"/>
		<path class="st3" d="M749.6,3057.7H723c-4,0-6,4.8-3.2,7.7l26.5,26.5c2.8,2.8,7.7,0.8,7.7-3.2v-26.5
			C754.1,3059.7,752,3057.7,749.6,3057.7z"/>
		<path class="st4" d="M774.4,3110.4c-0.6,5.7-5.4,9.9-11.1,9.9h-51.1v29.6c0,10.5,8.5,19,19,19h32.1c10.5,0,19-8.5,19-19v-92.8
			C780.2,3070,776.1,3095.7,774.4,3110.4z"/>
		<path class="st5" d="M796.8,2890.1c-1.5-6.9-8-11.6-15.1-11.6h-12.8c-8.2,0-14.9,6.7-14.9,14.9v9.1h-6.8l3.9,9.3h14.9
			c7.7,0,15.4-1.7,22.4-4.9C794.8,2904,798.4,2897,796.8,2890.1z"/>
		<circle class="st6" cx="732.5" cy="2970.9" r="18.7"/>
		<circle class="st7" cx="694.9" cy="2985.6" r="13.7"/>
		<polygon class="st8" points="659.3,2985.6 637.9,3023 463.5,3023 442.1,2985.6 		"/>
		<path class="st2" d="M427.3,2976c-0.3-0.5-0.7-1-1.1-1.4c0,0-2.1-6.9-14.3-11.6c-7.4-2.8-14.5-6.4-21.4-10.2
			c-3.8-2.1-8.3-4.3-13.2-5.8c-19.2-6-38.6,10.1-35,29.9c0.1,0.6,0.2,1.1,0.4,1.7c1.5,6,5.9,10.8,11.6,13.1
			c10,4,29.6,10.9,53.5,14.3C424.4,3008.2,436.6,2989.8,427.3,2976z"/>
		<path class="st3" d="M378.4,3057.7h-26.5c-2.5,0-4.5,2-4.5,4.5v26.5c0,4,4.8,6,7.7,3.2l26.5-26.5
			C384.4,3062.5,382.4,3057.7,378.4,3057.7z"/>
		<path class="st9" d="M727.4,3104c-27.6-47.8-59.4-46.3-59.4-46.3H433.4c0,0-31.8-1.5-59.4,46.3h-47.8l0.6,6.2
			c0.5,5.8,5.4,10.2,11.2,10.2h425.5c5.8,0,10.6-4.4,11.2-10.2l0.6-6.2L727.4,3104L727.4,3104z"/>
		<path class="st4" d="M338.1,3120.3c-5.7,0-10.5-4.3-11.1-9.9c-1.7-14.7-5.8-40.4-7.9-53.2v92.8c0,10.5,8.5,19,19,19h32.1
			c10.5,0,19-8.5,19-19v-29.6L338.1,3120.3L338.1,3120.3z"/>
		<path class="st5" d="M347.3,2902.5v-9.1c0-8.2-6.7-14.9-14.9-14.9h-12.8c-7.1,0-13.6,4.7-15.1,11.6c-1.6,6.9,2,13.9,8.3,16.8
			c7,3.2,14.7,4.9,22.4,4.9h14.9l3.9-9.3L347.3,2902.5C347.3,2902.5,347.3,2902.5,347.3,2902.5z"/>
		<circle class="st6" cx="368.9" cy="2970.9" r="18.7"/>
		<circle class="st7" cx="406.5" cy="2985.6" r="13.7"/>
		<g>
			<path class="st8" d="M650,3070.7H451.3c-3.1,0-5.6,2.5-5.6,5.6c0,3.1,2.5,5.6,5.6,5.6H650c3.1,0,5.6-2.5,5.6-5.6
				C655.7,3073.3,653.1,3070.7,650,3070.7z"/>
			<path class="st8" d="M650,3093.2H451.3c-3.1,0-5.6,2.5-5.6,5.6c0,3.1,2.5,5.6,5.6,5.6H650c3.1,0,5.6-2.5,5.6-5.6
				C655.7,3095.7,653.1,3093.2,650,3093.2z"/>
		</g>
		<path class="st10" d="M721.3,2863.2v1.9c0,7.7-6.4,14-14.3,13.6c-7.3-0.5-12.9-7-12.9-14.4v-27.6c0-6.5-5.4-11.5-11.9-11.3
			c-0.2,0-0.2,0-0.3,0c0,0,0,0-0.2,0c-6.5-0.2-11.9,4.8-11.9,11.3v25c0,7.7-6.7,14-14.4,13.5c-7.3-0.3-12.9-7-12.9-14.3v-21.7
			c0-6.5-5.4-11.9-12.1-11.9h-0.9c-6.2,0-11.3,5.1-11.3,11.3v28.3c0,7.7-6.5,13.9-14.4,13.6c-7.3-0.5-12.7-7-12.7-14.4v-37.9
			c0-6-5.3-11.2-11.5-10.7h-0.9c-6.4,0-11.5,5.1-11.5,11.3v38.7c0,7.4-6,13.6-13.6,13.6c-7.3,0-13.3-5.9-13.5-13.2v-32.5
			c0-7.4-5.6-13.9-12.9-14.4c-7.9-0.3-14.3,5.9-14.3,13.6l-0.2,30c0,7.7-6.3,13.9-14.3,13.6c-7.1-0.4-12.6-6.7-12.8-13.9v-35.3
			c0-7.3-5.5-13.9-12.8-14.3c-7.8-0.3-14.3,5.8-14.3,13.6v36.9c-0.2,7.6-6.6,13.6-14.3,13.3c-7.3-0.5-12.7-7-12.7-14.4v-27.7
			c0-6.5-5.6-11.5-12.1-11.3c-0.2,0-0.2,0-0.2,0c-0.2,0-0.2,0-0.2,0c-6.7-0.2-12.1,4.8-12.1,11.3v25c0,7.7-6.5,14-14.3,13.5
			c-6.7-0.3-11.8-5.9-12.6-12.4c-7.2,14.8-14.3,30.9-21.2,48.1c127.5,10,255.6,10,383.1,0C735.3,2893.6,728.3,2877.7,721.3,2863.2z"
			/>
	</g>
	<path class="st11" d="M2095.8,3236.9h-349.2c-9.8,0-17.7-7.9-17.7-17.7l0,0c0-9.8,7.9-17.7,17.7-17.7h349.2
		c9.8,0,17.7,7.9,17.7,17.7l0,0C2113.5,3229,2105.6,3236.9,2095.8,3236.9z"/>
	<path class="st11" d="M725.8,3236.9H376.6c-9.8,0-17.7-7.9-17.7-17.7l0,0c0-9.8,7.9-17.7,17.7-17.7h349.2c9.8,0,17.7,7.9,17.7,17.7
		l0,0C743.5,3229,735.6,3236.9,725.8,3236.9z"/>
	<path class="st11" d="M3343.8,3236.9h-349.2c-9.8,0-17.7-7.9-17.7-17.7l0,0c0-9.8,7.9-17.7,17.7-17.7h349.2
		c9.8,0,17.7,7.9,17.7,17.7l0,0C3361.5,3229,3353.6,3236.9,3343.8,3236.9z"/>
	<path class="st11" d="M4668.8,3236.9h-349.2c-9.8,0-17.7-7.9-17.7-17.7l0,0c0-9.8,7.9-17.7,17.7-17.7h349.2
		c9.8,0,17.7,7.9,17.7,17.7l0,0C4686.5,3229,4678.6,3236.9,4668.8,3236.9z"/>
	<g>
		<path class="st12" d="M1913,1938.5c10.9-7,25.3-4.6,25.3-4.6c3.2-0.3,6.4,0.2,9.2,1.4v-1c-12.5-16.8-6.2-37-6.2-37l0-2.1l-8-13.2
			l0.7-7.8c0.5-5-3.5-9.3-8.5-9.3l-7.6,0c0,0-24.2-5.7-38.2-16.5h-0.8c-3.6,10.4-4.3,23.9-4.3,23.9l-5.2,12.2
			c-0.9,2,0.2,4.3,2.4,4.9c2.1,0.9,8.2,0.7,9.3,6.5c1.2,6.3,4.8,17.9,15.7,19.5C1907.4,1916.8,1912.5,1928,1913,1938.5z"/>
		<path class="st13" d="M1929.2,1933.6c-0.9-10.4-6-21.2-16.6-22.7c-13.9-2-24.4-23.3-16.8-53.5c-5.7-2.4-11.5-5.5-16.1-9.1h-0.8
			c-3.6,10.4-4.3,23.9-4.3,23.9l-5.2,12.2c-0.9,2,0.2,4.3,2.4,4.9c2.1,0.9,8.2,0.7,9.3,6.5c1.2,6.3,4.8,17.9,15.7,19.5
			c10.6,1.5,15.7,12.6,16.3,23.2C1917.8,1935.5,1923.6,1934,1929.2,1933.6z"/>
		<path class="st14" d="M1938.4,1932.3c0,0-25.1-4.1-34.2,14.5c-8.1,16.5-16,59.7-8.8,92.3h45.8L1938.4,1932.3z"/>
		<path class="st15" d="M2016.7,2133.9l-13.3-6l-22,29.5c0,16.3,7.4,32.4,16.6,38c5.2,3.2,11.9-0.2,12.4-6.2l11.3-46
			C2022.4,2139.3,2020.3,2135.5,2016.7,2133.9z"/>
		<path class="st16" d="M1993.9,2140.7l-12.5,16.7c0,16.3,7.4,32.4,16.6,38c5.2,3.2,11.9-0.2,12.4-6.2l3.8-15.3
			C2005.5,2173.6,1995.7,2157.2,1993.9,2140.7z"/>
		<path class="st17" d="M1961.4,2101.2c-4.1-2.6-6.3-7.3-5.7-12.1c2.5-20.3-7.9-36.6-7.9-36.6l-1.3,0.8c-2,10.5-7.4,28.1-21,40.1
			c-2.8,2.5-4.4,6.1-4.4,9.9v18.8l52.5,34.2c4.3,2.8,10,1.6,12.8-2.7l17-25.7L1961.4,2101.2z"/>
		<path class="st18" d="M1981.5,2140.2l-58.8-43.1c-2.5,4.8-1.1,7.9-1.5,25l52.5,34.2c4.3,2.8,10,1.6,12.8-2.7l7.1-10.8
			C1989.5,2143.7,1985.1,2142.9,1981.5,2140.2z"/>
		<path class="st17" d="M1917.2,2038.3h-21.9c-9.3,23.7-20.3,36.1-18.7,59.2l5.1,75.4h41.2v-68.9c0-3.8,1.7-7.5,4.5-10
			c20.4-18.1,22-48.8,22-48.8C1927.1,2040,1924.1,2038.3,1917.2,2038.3z"/>
		<path class="st18" d="M1916.8,2038.3h-21.5c-9.3,23.7-20.3,36.1-18.7,59.2l5.1,75.4h21.5l-5.1-75.4
			C1896.5,2074.4,1907.4,2062,1916.8,2038.3z"/>
		<path class="st15" d="M1881.7,2172.1c-15.8,3.7-26,13.9-29.2,23.3c-1.8,5.3,3.1,10.5,9.1,9.7l57.7-0.3c3.9-0.3,4.9-3.4,4.9-7.5
			l-1.3-25.2L1881.7,2172.1L1881.7,2172.1z"/>
		<path class="st16" d="M1883.8,2193.8c2.6-7.8,9.3-16,19.5-21.7h-21.6c-15.8,3.7-26,13.9-29.2,23.3c-1.8,5.3,3.1,10.5,9.1,9.7
			l29.2-0.1C1885.5,2203.8,1882.1,2198.9,1883.8,2193.8z"/>
		<path class="st19" d="M1961.6,2006.3c0.4-6.9,0.8-24.8-4.6-36.4l-30.6,2.7c0,0-0.3,19.9,4.7,36.3c0.8,2.7,0.4,5.7-1.2,8
			c-28.6,42.5-24.6,39.3-27.2,40.7l-12.2,6.9c-3,1.7-4.1,5.5-2.5,8.5l0,0c1.4,2.6-0.5,4.7-0.4,4.6c-4.3,5.6-2.6,13.7,3.7,17l0,0
			c7.2,3.8,16.2,1.4,20.6-5.5c8.3-12.9,8.7-14.1,11.6-16.2c6.5-4.9,26.5-21.5,34.2-44.8c0.7-2.1,1.5-4.2,2.4-6.3
			C1963.1,2015.3,1961.3,2011.9,1961.6,2006.3z"/>
		<path class="st20" d="M1943.2,2026.3c0.7-2.1,1.5-4.2,2.4-6.3c2.9-6.5,1.1-9.8,1.5-15.5c0.4-6.4,0.7-22-3.4-33.5l-17.3,1.5
			c0,0-0.3,19.9,4.7,36.3c0.8,2.7,0.4,5.7-1.2,8c-28.6,42.5-24.6,39.3-27.2,40.7l-12.2,6.9c-3,1.7-4.1,5.5-2.5,8.5
			c1.4,2.5-0.4,4.6-0.4,4.6c-3.9,5.1-2.8,12.2,2.1,15.9c3-1.2,5.7-3.3,7.6-6.2c8.3-12.9,8.7-14.1,11.6-16.2
			C1915.5,2066.2,1935.5,2049.6,1943.2,2026.3z"/>
		<path class="st21" d="M1961.4,1966.4l-1.4-16c-0.7-7.9-5.9-14.3-12.9-16.9c-4.9,4.1-7.8,10.6-7.2,17.6c2,19.1,1,19.9,2.9,21.7
			l14.4-1.2C1959.7,1971.3,1961.6,1969,1961.4,1966.4z"/>
		<path class="st14" d="M1946.1,1972.5c-1.9,0.2-3.5-1.3-3.7-3.2l-1.6-18.1c-0.6-6.9,2.5-13.3,7.6-17.1
			c-13.7-6.4-28.7,4.4-27.4,18.8l1.6,18.1c0.2,1.9,1.9,3.4,3.8,3.2c18.1-1.6,12.5-1.1,30.6-2.7L1946.1,1972.5z"/>
		<path class="st22" d="M1941,1814.3c0,0-34.1-25.9-64.2,4.3c-30.4,30.4,40.3,47,40.3,47l7.6,0c5,0,9,4.3,8.5,9.3
			c-0.4,4.4-1.1,7.2,1.1,10.8l7,11.5C1993.7,1841,1941,1814.3,1941,1814.3z"/>
		<path class="st23" d="M1896.9,1830.5c18.8-18.8,39.1-15.8,51.7-10.9c-4.2-3.5-7.7-5.3-7.7-5.3s-34.1-25.9-64.2,4.3
			c-19,19,1.6,32.7,19.6,40.2C1888.4,1851.4,1885.5,1842,1896.9,1830.5z"/>
	</g>
	<g>
		<path class="st12" d="M1906,2902.3c10.9-7,25.3-4.6,25.3-4.6c3.2-0.3,6.4,0.2,9.2,1.4v-1c-12.5-16.8-6.2-37-6.2-37l0-2.1l-8-13.2
			l0.7-7.8c0.5-5-3.5-9.3-8.5-9.3l-7.6,0c0,0-24.2-5.7-38.2-16.5h-0.8c-3.6,10.4-4.3,23.9-4.3,23.9l-5.2,12.2
			c-0.9,2,0.2,4.3,2.4,4.9c2.1,0.9,8.2,0.7,9.3,6.5c1.2,6.3,4.8,17.9,15.7,19.5C1900.4,2880.6,1905.4,2891.8,1906,2902.3z"/>
		<path class="st13" d="M1922.1,2897.4c-0.9-10.4-6-21.2-16.6-22.7c-13.9-2-24.4-23.3-16.8-53.5c-5.7-2.4-11.5-5.5-16.1-9.1h-0.8
			c-3.6,10.4-4.3,23.9-4.3,23.9l-5.2,12.2c-0.9,2,0.2,4.3,2.4,4.9c2.1,0.9,8.2,0.7,9.3,6.5c1.2,6.3,4.8,17.9,15.7,19.5
			c10.6,1.5,15.7,12.6,16.3,23.2C1910.8,2899.3,1916.5,2897.8,1922.1,2897.4z"/>
		<path class="st14" d="M1931.3,2896.1c0,0-25.1-4.1-34.2,14.5c-8.1,16.5-16,59.7-8.8,92.3h45.8L1931.3,2896.1z"/>
		<path class="st15" d="M2009.7,3097.7l-13.3-6l-22,29.5c0,16.3,7.4,32.4,16.6,38c5.2,3.2,11.9-0.2,12.4-6.2l11.3-46
			C2015.3,3103.1,2013.3,3099.3,2009.7,3097.7z"/>
		<path class="st16" d="M1986.9,3104.5l-12.5,16.7c0,16.3,7.4,32.4,16.6,38c5.2,3.2,11.9-0.2,12.4-6.2l3.8-15.3
			C1998.4,3137.4,1988.7,3121,1986.9,3104.5z"/>
		<path class="st17" d="M1954.4,3065c-4.1-2.6-6.3-7.3-5.7-12.1c2.5-20.3-7.9-36.6-7.9-36.6l-1.3,0.8c-2,10.5-7.4,28.1-21,40.1
			c-2.8,2.5-4.4,6.1-4.4,9.9v18.8l52.5,34.2c4.3,2.8,10,1.6,12.8-2.7l17-25.7L1954.4,3065z"/>
		<path class="st18" d="M1974.5,3104l-58.8-43.1c-2.5,4.8-1.1,7.9-1.5,25l52.5,34.2c4.3,2.8,10,1.6,12.8-2.7l7.1-10.8
			C1982.5,3107.5,1978.1,3106.7,1974.5,3104z"/>
		<path class="st17" d="M1910.1,3002.1h-21.9c-9.3,23.7-20.3,36.1-18.7,59.2l5.1,75.4h41.2v-68.9c0-3.8,1.7-7.5,4.5-10
			c20.4-18.1,22-48.8,22-48.8C1920.1,3003.8,1917.1,3002.1,1910.1,3002.1z"/>
		<path class="st18" d="M1909.7,3002.1h-21.5c-9.3,23.7-20.3,36.1-18.7,59.2l5.1,75.4h21.5l-5.1-75.4
			C1889.5,3038.2,1900.4,3025.8,1909.7,3002.1z"/>
		<path class="st15" d="M1874.6,3135.9c-15.8,3.7-26,13.9-29.2,23.3c-1.8,5.3,3.1,10.5,9.1,9.7l57.7-0.3c3.9-0.3,4.9-3.4,4.9-7.5
			l-1.3-25.2L1874.6,3135.9L1874.6,3135.9z"/>
		<path class="st16" d="M1876.8,3157.6c2.6-7.8,9.3-16,19.5-21.7h-21.6c-15.8,3.7-26,13.9-29.2,23.3c-1.8,5.3,3.1,10.5,9.1,9.7
			l29.2-0.1C1878.5,3167.6,1875,3162.7,1876.8,3157.6z"/>
		<path class="st19" d="M1954.6,2970.1c0.4-6.9,0.8-24.8-4.6-36.4l-30.6,2.7c0,0-0.3,19.9,4.7,36.3c0.8,2.7,0.4,5.7-1.2,8
			c-28.6,42.5-24.6,39.3-27.2,40.7l-12.2,6.9c-3,1.7-4.1,5.5-2.5,8.5l0,0c1.4,2.6-0.5,4.7-0.4,4.6c-4.3,5.6-2.6,13.7,3.7,17l0,0
			c7.2,3.8,16.2,1.4,20.6-5.5c8.3-12.9,8.7-14.1,11.6-16.2c6.5-4.9,26.5-21.5,34.2-44.8c0.7-2.1,1.5-4.2,2.4-6.3
			C1956.1,2979.1,1954.3,2975.7,1954.6,2970.1z"/>
		<path class="st20" d="M1936.2,2990.1c0.7-2.1,1.5-4.2,2.4-6.3c2.9-6.5,1.1-9.8,1.5-15.5c0.4-6.4,0.7-22-3.4-33.5l-17.3,1.5
			c0,0-0.3,19.9,4.7,36.3c0.8,2.7,0.4,5.7-1.2,8c-28.6,42.5-24.6,39.3-27.2,40.7l-12.2,6.9c-3,1.7-4.1,5.5-2.5,8.5
			c1.4,2.5-0.4,4.6-0.4,4.6c-3.9,5.1-2.8,12.2,2.1,15.9c3-1.2,5.7-3.3,7.6-6.2c8.3-12.9,8.7-14.1,11.6-16.2
			C1908.5,3029.9,1928.5,3013.4,1936.2,2990.1z"/>
		<path class="st21" d="M1954.3,2930.2l-1.4-16c-0.7-7.9-5.9-14.3-12.9-16.9c-4.9,4.1-7.8,10.6-7.2,17.6c2,19.1,1,19.9,2.9,21.7
			l14.4-1.3C1952.6,2935.1,1954.5,2932.8,1954.3,2930.2z"/>
		<path class="st14" d="M1939.1,2936.3c-1.9,0.2-3.5-1.3-3.7-3.2l-1.6-18.1c-0.6-6.9,2.5-13.3,7.6-17.1
			c-13.7-6.4-28.7,4.4-27.4,18.8l1.6,18.1c0.2,1.9,1.9,3.4,3.8,3.2c18.1-1.6,12.5-1.1,30.6-2.7L1939.1,2936.3z"/>
		<path class="st22" d="M1934,2778.1c0,0-34.1-25.9-64.2,4.3c-30.4,30.4,40.3,47,40.3,47l7.6,0c5,0,9,4.3,8.5,9.3
			c-0.4,4.4-1.1,7.2,1.1,10.8l7,11.5C1986.7,2804.8,1934,2778.1,1934,2778.1z"/>
		<path class="st23" d="M1889.9,2794.3c18.8-18.8,39.1-15.8,51.7-10.9c-4.2-3.5-7.7-5.3-7.7-5.3s-34.1-25.9-64.2,4.3
			c-19,19,1.6,32.7,19.6,40.2C1881.3,2815.2,1878.5,2805.8,1889.9,2794.3z"/>
	</g>
	<g>
		<path class="st24" d="M3131.6,1996.5c0,5.2,2.4,9.9,6.1,13l73.3,65.8v-20.7c0,0,0.1-6,2.8-12l-29.2-29.2h11.7v-31.9
			c0-0.7,0.3-1.3,0.7-1.8h-48.6C3139.1,1979.6,3131.6,1987.2,3131.6,1996.5z"/>
		<path class="st25" d="M3195.1,1981.5v41.6c0,1.5,1.2,2.7,2.7,2.7h22l22.6-22.6c0.3-0.3,0.3-0.9,0-1.3l-23-23h-21.6
			C3196.3,1978.8,3195.1,1980,3195.1,1981.5z"/>
		<path class="st26" d="M3254.5,2133.2c0,39.8,32.2,72,72,72c39.8,0,72-32.2,72-72s-32.2-72-72-72
			C3286.7,2061.2,3254.5,2093.5,3254.5,2133.2z M3273.7,2133.2c0-29.1,23.7-52.8,52.8-52.8c29.1,0,52.8,23.7,52.8,52.8
			c0,29.1-23.7,52.8-52.8,52.8C3297.3,2186,3273.7,2162.3,3273.7,2133.2z"/>
		<path class="st27" d="M3267,2133.2c0-32.8,26.7-59.5,59.5-59.5c32.8,0,59.5,26.7,59.5,59.5c0,32.8-26.7,59.5-59.5,59.5
			C3293.7,2192.7,3267,2166,3267,2133.2z M3280.3,2133.2c0,25.4,20.7,46.1,46.1,46.1c25.4,0,46.1-20.7,46.1-46.1
			c0-25.4-20.7-46.1-46.1-46.1C3301,2087.1,3280.3,2107.8,3280.3,2133.2z"/>
		<path class="st26" d="M2966.5,2133.2c0,39.8,32.2,72,72,72c39.8,0,72-32.2,72-72s-32.2-72-72-72S2966.5,2093.5,2966.5,2133.2z
			 M2985.7,2133.2c0-29.1,23.7-52.8,52.8-52.8s52.8,23.7,52.8,52.8c0,29.1-23.7,52.8-52.8,52.8S2985.7,2162.3,2985.7,2133.2z"/>
		<path class="st27" d="M2979,2133.2c0-32.8,26.7-59.5,59.5-59.5s59.5,26.7,59.5,59.5c0,32.8-26.7,59.5-59.5,59.5
			S2979,2166,2979,2133.2z M2992.4,2133.2c0,25.4,20.7,46.1,46.1,46.1s46.1-20.7,46.1-46.1c0-25.4-20.7-46.1-46.1-46.1
			S2992.4,2107.8,2992.4,2133.2z"/>
		<g>
			<path class="st28" d="M3239.2,2139.6v0.3h84.6c3.4,0,6.3-1.8,7.5-4.6c1.2-2.9,0.5-6.2-1.9-8.6l-71.9-74.8l-9.2,9.2
				c-0.1,0.1-0.2,0.2-0.3,0.2l62.7,65.3H3237l-0.7,8.8c0,0.4,0.2,0.8,0.6,0.9C3238.2,2136.8,3239.2,2138.1,3239.2,2139.6
				L3239.2,2139.6z"/>
			<path class="st28" d="M3040.4,2043.9h27.7l-35.8,86.8c-0.3,0.8-0.5,1.7-0.5,2.5c0,2.6,1.6,5.1,4.1,6.2c0.8,0.3,1.7,0.5,2.5,0.5
				c2.6,0,5.1-1.6,6.2-4.1l37.9-91.9h4.2l76.7,79.8c2.6-3.7,6.1-6.7,10.2-8.7l-68.3-71.1h108c1.2-3,3-6,5.8-8.3
				c0.2-0.2,0.3-0.4,0.3-0.6c0-0.2-0.1-0.5-0.3-0.7l-2.6-2.6c-0.3-0.3-0.5-0.7-0.5-1.1h-175.5c-6.6,0-12-5.4-12-12
				c0-6.6,5.4-12,12-12h24.1c-1.2-2-2-4.4-2-6.9c0-2.3,0.6-4.5,1.6-6.4h-23.8c-14,0-25.4,11.4-25.4,25.4
				C3015,2032.5,3026.4,2043.9,3040.4,2043.9z"/>
		</g>
		<path class="st26" d="M3157.7,2139c0,15.2,12.4,27.6,27.6,27.6c9.5,0,17.9-4.8,22.9-12.2h-16.5c-2,0-3.6-1.6-3.6-3.6v-11.3
			c0-2,1.6-3.6,3.6-3.6h18.4c0.5,0,0.9-0.4,0.9-0.9v-6.4c-4.1-10.2-14-17.4-25.6-17.4C3170.1,2111.4,3157.7,2123.7,3157.7,2139z"/>
		<path class="st29" d="M3210.1,2136.1h25.5c0.5,0,1,0.1,1.5,0.3l6.4-77.6l-24.4-24.4c-8.9,6.8-9,20.2-9,20.2V2136.1z"/>
		<path class="st24" d="M3201.4,1872.8v-19.6h-74.3v19.6c0,20.5,16.6,37.2,37.2,37.2C3184.7,1909.9,3201.4,1893.3,3201.4,1872.8
			L3201.4,1872.8z"/>
		<path class="st30" d="M3180.4,1853.1v53.1c12.4-6,21-18.7,21-33.5v-16.9c0-0.9,0-1.8-0.1-2.7H3180.4z"/>
		<path class="st31" d="M3127.1,1840.2L3127.1,1840.2v14.3h105.5c3.9,0,7.1-3.2,7.1-7.1c0-3.9-3.2-7.1-7.1-7.1h-31.2v-1.1
			c0-20.5-16.6-30.7-37.2-30.7C3143.7,1808.5,3127.1,1819.7,3127.1,1840.2z"/>
		<path class="st32" d="M3127.1,1840.2L3127.1,1840.2v14.3h10.5v-14.3v0c0-18.8,13.9-29.8,32.1-31.5c-1.8-0.2-3.5-0.2-5.4-0.2
			C3143.7,1808.5,3127.1,1819.7,3127.1,1840.2z"/>
		<path class="st33" d="M3187.3,2139.6c0-2.4,2-4.5,4.5-4.5h43.9c2.4,0,4.5,2,4.5,4.5v11.3c0,2.4-2,4.5-4.5,4.5h-43.9
			c-2.4,0-4.5-2-4.5-4.5V2139.6z"/>
		<g class="st34">
			<path d="M3217.3,2155.3h18.4c2.4,0,4.5-2,4.5-4.5v-11.3c0-2.4-2-4.5-4.5-4.5h-18.4c2.4,0,4.5,2,4.5,4.5v11.3
				C3221.7,2153.3,3219.7,2155.3,3217.3,2155.3z"/>
		</g>
		<path class="st35" d="M3283.7,1962l-66.6-66.6c-0.5-0.5-1.1-1-1.7-1.5c0.5,0.6,0.8,1.3,1,2c0.8,3.5,1.2,7,1.2,10.6
			c0,17.7-9.7,33.7-25.4,41.8c-0.7,0.4-1.5,0.5-2.2,0.5c-0.9,0-1.9-0.3-2.6-0.8l55.2,55.2L3283.7,1962z"/>
		<path class="st32" d="M3283.7,1962l-66.6-66.6c-0.2-0.2-0.4-0.3-0.6-0.5c0.6,0.6,1,1.4,1.2,2.3c0.8,3.5,1.2,7,1.2,10.6
			c0,2.4-0.2,4.7-0.5,7l56.3,56.3L3283.7,1962z"/>
		<path class="st29" d="M3056.6,1981.6v10.4c0,3.9,2.5,7.2,6,8.3c0-0.3,0-0.5,0-0.8c0-7.4,6-13.4,13.4-13.4
			c7.1,0,12.8,5.5,13.3,12.4c0,0,0,0,0.1,0c0.6,0,1.2-0.2,1.7-0.4l56.3-25.9c0.4-0.2,0.7-0.4,1-0.6l34.7-27.9l4.9,4.9
			c0.9,0.9,2.2,1.4,3.4,1.4c0.7,0,1.5-0.2,2.2-0.5c15.7-8.1,25.4-24.1,25.4-41.8c0-3.6-0.4-7.1-1.2-10.6c-0.2-1-0.7-1.8-1.5-2.5
			c-3.5-3.1-8-4.8-12.8-4.8c-5.1,0-10,2-13.6,5.6l-54,54l-43.3,23.5h-27.3C3060.5,1972.9,3056.6,1976.8,3056.6,1981.6z"/>
		
			<ellipse transform="matrix(0.1602 -0.9871 0.9871 0.1602 609.4999 4715.4507)" class="st36" cx="3075.9" cy="1999.5" rx="14.2" ry="14.2"/>
		<path class="st30" d="M3137.8,1873v-6.6c0-3.9,3.2-7.1,7.1-7.1s7.1,3.2,7.1,7.1v6.6c0,3.9-3.2,7.1-7.1,7.1
			S3137.8,1877,3137.8,1873z"/>
		<path class="st36" d="M3215,2030.4c0,0.7,0.3,1.4,0.8,1.9l29.4,29.4c0.5,0.5,1.2,0.8,1.9,0.8c0.7,0,1.4-0.3,1.9-0.8l53.6-53.6
			c7.5-7.5,7.5-19.7,0-27.1l-19.6-19.6c0,0-0.1,0.1-0.1,0.1l-67.1,67.1C3215.3,2029,3215,2029.7,3215,2030.4z"/>
	</g>
	<g>
		<path class="st24" d="M3124.1,2960.3c0,5.2,2.4,9.9,6.1,13l73.3,65.8v-20.7c0,0,0.1-6,2.8-12l-29.2-29.2h11.7v-31.9
			c0-0.7,0.3-1.3,0.7-1.8h-48.6C3131.6,2943.4,3124.1,2951,3124.1,2960.3z"/>
		<path class="st25" d="M3187.6,2945.2v41.6c0,1.5,1.2,2.7,2.7,2.7h22l22.6-22.6c0.3-0.3,0.3-0.9,0-1.3l-23-23h-21.6
			C3188.8,2942.6,3187.6,2943.8,3187.6,2945.2z"/>
		<path class="st26" d="M3246.9,3097c0,39.8,32.2,72,72,72c39.8,0,72-32.2,72-72s-32.2-72-72-72
			C3279.1,3025,3246.9,3057.3,3246.9,3097z M3266.1,3097c0-29.1,23.7-52.8,52.8-52.8c29.1,0,52.8,23.7,52.8,52.8
			c0,29.1-23.7,52.8-52.8,52.8C3289.8,3149.8,3266.1,3126.1,3266.1,3097z"/>
		<path class="st27" d="M3259.4,3097c0-32.8,26.7-59.5,59.5-59.5c32.8,0,59.5,26.7,59.5,59.5c0,32.8-26.7,59.5-59.5,59.5
			C3286.1,3156.5,3259.4,3129.8,3259.4,3097z M3272.8,3097c0,25.4,20.7,46.1,46.1,46.1c25.4,0,46.1-20.7,46.1-46.1
			s-20.7-46.1-46.1-46.1C3293.5,3050.9,3272.8,3071.6,3272.8,3097z"/>
		<path class="st26" d="M2959,3097c0,39.8,32.2,72,72,72c39.8,0,72-32.2,72-72s-32.2-72-72-72S2959,3057.3,2959,3097z M2978.2,3097
			c0-29.1,23.7-52.8,52.8-52.8c29.1,0,52.8,23.7,52.8,52.8c0,29.1-23.7,52.8-52.8,52.8S2978.2,3126.1,2978.2,3097z"/>
		<path class="st27" d="M2971.5,3097c0-32.8,26.7-59.5,59.5-59.5c32.8,0,59.5,26.7,59.5,59.5c0,32.8-26.7,59.5-59.5,59.5
			C2998.2,3156.5,2971.5,3129.8,2971.5,3097z M2984.8,3097c0,25.4,20.7,46.1,46.1,46.1c25.4,0,46.1-20.7,46.1-46.1
			s-20.7-46.1-46.1-46.1C3005.5,3050.9,2984.8,3071.6,2984.8,3097z"/>
		<g>
			<path class="st28" d="M3231.6,3103.4v0.3h84.6c3.4,0,6.3-1.8,7.5-4.6c1.2-2.9,0.5-6.2-1.9-8.6l-71.9-74.8l-9.2,9.2
				c-0.1,0.1-0.2,0.2-0.3,0.2l62.7,65.3h-73.7l-0.7,8.8c0,0.4,0.2,0.8,0.6,0.9C3230.7,3100.6,3231.6,3101.9,3231.6,3103.4
				L3231.6,3103.4z"/>
			<path class="st28" d="M3032.9,3007.7h27.7l-35.8,86.8c-0.3,0.8-0.5,1.7-0.5,2.5c0,2.6,1.6,5.1,4.1,6.2c0.8,0.3,1.7,0.5,2.5,0.5
				c2.6,0,5.1-1.6,6.2-4.1l37.9-91.9h4.2l76.7,79.8c2.6-3.7,6.1-6.7,10.2-8.7l-68.3-71.1h108c1.2-3,3-6,5.8-8.3
				c0.2-0.2,0.3-0.4,0.3-0.6c0-0.2-0.1-0.5-0.3-0.7l-2.6-2.6c-0.3-0.3-0.5-0.7-0.5-1.1h-175.5c-6.6,0-12-5.4-12-12
				c0-6.6,5.4-12,12-12h24.1c-1.2-2-2-4.4-2-6.9c0-2.3,0.6-4.5,1.6-6.4h-23.8c-14,0-25.4,11.4-25.4,25.4
				C3007.5,2996.3,3018.9,3007.7,3032.9,3007.7z"/>
		</g>
		<path class="st26" d="M3150.2,3102.8c0,15.2,12.4,27.6,27.6,27.6c9.5,0,17.9-4.8,22.9-12.2h-16.5c-2,0-3.6-1.6-3.6-3.6v-11.3
			c0-2,1.6-3.6,3.6-3.6h18.4c0.5,0,0.9-0.4,0.9-0.9v-6.4c-4.1-10.2-14-17.4-25.6-17.4C3162.6,3075.2,3150.2,3087.5,3150.2,3102.8z"
			/>
		<path class="st29" d="M3202.6,3099.9h25.5c0.5,0,1,0.1,1.5,0.3l6.4-77.6l-24.4-24.4c-8.9,6.8-9,20.2-9,20.2V3099.9z"/>
		<path class="st24" d="M3193.8,2836.5v-19.6h-74.3v19.6c0,20.5,16.6,37.2,37.2,37.2C3177.2,2873.7,3193.8,2857.1,3193.8,2836.5
			L3193.8,2836.5z"/>
		<path class="st30" d="M3172.8,2816.9v53.1c12.4-6,21-18.7,21-33.5v-16.9c0-0.9,0-1.8-0.1-2.7H3172.8z"/>
		<path class="st31" d="M3119.5,2804L3119.5,2804v14.3h105.5c3.9,0,7.1-3.2,7.1-7.1c0-3.9-3.2-7.1-7.1-7.1h-31.2v-1.1
			c0-20.5-16.6-30.7-37.2-30.7C3136.2,2772.3,3119.5,2783.5,3119.5,2804z"/>
		<path class="st32" d="M3119.5,2804L3119.5,2804v14.3h10.5v-14.3v0c0-18.8,13.9-29.8,32.1-31.5c-1.8-0.2-3.5-0.2-5.4-0.2
			C3136.2,2772.3,3119.5,2783.5,3119.5,2804z"/>
		<path class="st33" d="M3179.7,3103.4c0-2.4,2-4.5,4.5-4.5h43.9c2.4,0,4.5,2,4.5,4.5v11.3c0,2.4-2,4.5-4.5,4.5h-43.9
			c-2.4,0-4.5-2-4.5-4.5V3103.4z"/>
		<g class="st34">
			<path d="M3209.7,3119.1h18.4c2.4,0,4.5-2,4.5-4.5v-11.3c0-2.4-2-4.5-4.5-4.5h-18.4c2.4,0,4.5,2,4.5,4.5v11.3
				C3214.2,3117.1,3212.2,3119.1,3209.7,3119.1z"/>
		</g>
		<path class="st35" d="M3276.1,2925.7l-66.6-66.6c-0.5-0.5-1.1-1-1.7-1.5c0.5,0.6,0.8,1.3,1,2c0.8,3.5,1.2,7,1.2,10.6
			c0,17.7-9.7,33.7-25.4,41.8c-0.7,0.4-1.5,0.5-2.2,0.5c-0.9,0-1.9-0.3-2.6-0.8l55.2,55.2L3276.1,2925.7z"/>
		<path class="st32" d="M3276.1,2925.7l-66.6-66.6c-0.2-0.2-0.4-0.3-0.6-0.5c0.6,0.6,1,1.4,1.2,2.3c0.8,3.5,1.2,7,1.2,10.6
			c0,2.4-0.2,4.7-0.5,7l56.3,56.3L3276.1,2925.7z"/>
		<path class="st29" d="M3049,2945.4v10.4c0,3.9,2.5,7.2,6,8.3c0-0.3,0-0.5,0-0.8c0-7.4,6-13.4,13.4-13.4c7.1,0,12.8,5.5,13.3,12.4
			c0,0,0,0,0.1-0.1c0.6,0,1.2-0.2,1.7-0.4l56.3-25.9c0.4-0.2,0.7-0.4,1-0.6l34.7-27.9l4.9,4.9c0.9,0.9,2.2,1.4,3.4,1.4
			c0.7,0,1.5-0.2,2.2-0.5c15.7-8.1,25.4-24.1,25.4-41.8c0-3.6-0.4-7.1-1.2-10.6c-0.2-1-0.7-1.8-1.5-2.5c-3.5-3.1-8-4.8-12.8-4.8
			c-5.1,0-10,2-13.6,5.6l-54,54l-43.3,23.5h-27.3C3052.9,2936.7,3049,2940.6,3049,2945.4z"/>
		
			<ellipse transform="matrix(0.1602 -0.9871 0.9871 0.1602 -348.1779 5517.4233)" class="st36" cx="3068.4" cy="2963.3" rx="14.2" ry="14.2"/>
		<path class="st30" d="M3130.3,2836.8v-6.6c0-3.9,3.2-7.1,7.1-7.1s7.1,3.2,7.1,7.1v6.6c0,3.9-3.2,7.1-7.1,7.1
			S3130.3,2840.7,3130.3,2836.8z"/>
		<path class="st36" d="M3207.5,2994.2c0,0.7,0.3,1.4,0.8,1.9l29.4,29.4c0.5,0.5,1.2,0.8,1.9,0.8c0.7,0,1.4-0.3,1.9-0.8l53.6-53.6
			c7.5-7.5,7.5-19.7,0-27.1l-19.6-19.6c0,0-0.1,0.1-0.1,0.1l-67.1,67.1C3207.7,2992.8,3207.5,2993.5,3207.5,2994.2z"/>
	</g>
	<g>
		<g>
			<path class="st37" d="M4467.9,2129.2l-43,73.7c-0.8,1.4-2.3,2.3-4,2.3h-14.7c-3.5,0-5.7-3.8-4-6.9l40.3-69.1v-3.9h25.3
				L4467.9,2129.2L4467.9,2129.2z"/>
			<path class="st37" d="M4556.5,2129.2l40.3,69.1c1.8,3.1-0.4,6.9-4,6.9l-14.7,0c-1.6,0-3.1-0.9-4-2.3l-43-73.7v-3.9h25.3V2129.2
				L4556.5,2129.2z"/>
		</g>
		<g>
			<path class="st38" d="M4444.8,2166.6l109.5,0c3.2,0,5.7-2.6,5.7-5.7c0-3.2-2.6-5.7-5.7-5.7l-109.5,0c-3.2,0-5.7,2.6-5.7,5.7
				S4441.6,2166.6,4444.8,2166.6z"/>
			<path class="st38" d="M4570.4,2180.5l-141.7,0c-3.2,0-5.7,2.6-5.7,5.7s2.6,5.7,5.7,5.7l141.7,0c3.2,0,5.7-2.6,5.7-5.7
				C4576.1,2183,4573.6,2180.5,4570.4,2180.5z"/>
		</g>
		<path class="st39" d="M4398.2,1837.8c-14,0-25.3,11.3-25.3,25.3v253.4c0,14,11.3,25.3,25.3,25.3h20.8c2.5,0,4.6-2.1,4.6-4.6v-8.1
			h152v8.1c0,2.5,2.1,4.6,4.6,4.6h20.8c14,0,25.3-11.3,25.3-25.3v-253.4c0-14-11.3-25.3-25.3-25.3L4398.2,1837.8L4398.2,1837.8z"/>
		<g>
			<path class="st40" d="M4408.2,2141.9h10.7c2.5,0,4.6-2.1,4.6-4.6v-8.1h-15.3V2141.9z"/>
			<path class="st40" d="M4600.9,1837.8h-15.3c14,0,25.3,11.3,25.3,25.3v253.4c0,14-11.3,25.3-25.3,25.3h15.3
				c14,0,25.3-11.3,25.3-25.3v-253.4C4626.2,1849.1,4614.9,1837.8,4600.9,1837.8z"/>
		</g>
		<rect x="4372.8" y="1888.5" class="st37" width="253.4" height="152"/>
		<path class="st41" d="M4602.6,2021.5h-206.2c-2.5,0-4.6-2.1-4.6-4.6v-104.9c0-2.5,2.1-4.6,4.6-4.6h206.2c2.5,0,4.6,2.1,4.6,4.6
			v104.9C4607.2,2019.4,4605.2,2021.5,4602.6,2021.5z"/>
		<g>
			<path class="st42" d="M4436.2,2084.8c7,0,12.7-5.7,12.7-12.7s-5.7-12.7-12.7-12.7h-25.3c-7,0-12.7,5.7-12.7,12.7
				s5.7,12.7,12.7,12.7H4436.2z"/>
			<path class="st42" d="M4588.2,2084.8c7,0,12.7-5.7,12.7-12.7s-5.7-12.7-12.7-12.7h-25.3c-7,0-12.7,5.7-12.7,12.7
				s5.7,12.7,12.7,12.7H4588.2z"/>
		</g>
		<rect x="4610.9" y="1888.5" class="st38" width="15.3" height="152"/>
		<path class="st42" d="M4458,1825.1h83c1.7,0,3.3,1,4.1,2.5l4.6,9.2c0.3,0.6,0.5,1.3,0.5,2.1v19.7c0,2.5-2.1,4.6-4.6,4.6h-92.2
			c-2.5,0-4.6-2.1-4.6-4.6v-19.7c0-0.7,0.2-1.4,0.5-2.1l4.6-9.2C4454.7,1826.1,4456.3,1825.1,4458,1825.1z"/>
		<path class="st43" d="M4549.7,1836.8l-4.6-9.2c-0.8-1.6-2.4-2.5-4.1-2.5h-15.3c1.7,0,3.3,1,4.1,2.5l4.6,9.2
			c0.3,0.6,0.5,1.3,0.5,2.1v19.7c0,2.5-2.1,4.6-4.6,4.6h15.3c2.5,0,4.6-2.1,4.6-4.6v-19.7C4550.2,1838.2,4550,1837.4,4549.7,1836.8z
			"/>
		<path class="st39" d="M4499.5,1843.5c3.2,0,5.7-2.6,5.7-5.7v-12.7l0,0h-11.5l0,0v12.7C4493.8,1840.9,4496.4,1843.5,4499.5,1843.5z
			"/>
		<path class="st44" d="M4602.6,1907.5h-15.3c2.5,0,4.6,2.1,4.6,4.6v104.9c0,2.5-2.1,4.6-4.6,4.6h15.3c2.5,0,4.6-2.1,4.6-4.6v-104.9
			C4607.2,1909.5,4605.2,1907.5,4602.6,1907.5z"/>
		<g>
			<path class="st43" d="M4588.2,2059.5h-15.3c7,0,12.7,5.7,12.7,12.7s-5.7,12.7-12.7,12.7h15.3c7,0,12.7-5.7,12.7-12.7
				S4595.2,2059.5,4588.2,2059.5z"/>
			<path class="st43" d="M4435.9,2059.5h-15.3c7,0,12.7,5.7,12.7,12.7s-5.7,12.7-12.7,12.7h15.3c7,0,12.7-5.7,12.7-12.7
				S4442.9,2059.5,4435.9,2059.5z"/>
		</g>
		<path class="st45" d="M4626.2,2109.6v-11.5l0,0h-85.6l-11-16.5c-1.1-1.6-2.9-2.6-4.8-2.6h-50.7c-1.9,0-3.7,1-4.8,2.6l-11,16.5
			l-85.6,0v11.5l88.7,0c1.9,0,3.7-1,4.8-2.6l11-16.5h44.5l11,16.5c1.1,1.6,2.9,2.6,4.8,2.6L4626.2,2109.6L4626.2,2109.6z"/>
	</g>
	<g>
		<g>
			<path class="st37" d="M4467.9,3093l-43,73.7c-0.8,1.4-2.3,2.3-4,2.3h-14.7c-3.5,0-5.7-3.8-4-6.9l40.3-69.1v-3.9h25.3L4467.9,3093
				L4467.9,3093z"/>
			<path class="st37" d="M4556.5,3093l40.3,69.1c1.8,3.1-0.4,6.9-4,6.9l-14.7,0c-1.6,0-3.1-0.9-4-2.3l-43-73.7v-3.9h25.3V3093
				L4556.5,3093z"/>
		</g>
		<g>
			<path class="st38" d="M4444.8,3130.4l109.5,0c3.2,0,5.7-2.6,5.7-5.7c0-3.2-2.6-5.7-5.7-5.7l-109.5,0c-3.2,0-5.7,2.6-5.7,5.7
				S4441.6,3130.4,4444.8,3130.4z"/>
			<path class="st38" d="M4570.4,3144.3l-141.7,0c-3.2,0-5.7,2.6-5.7,5.7s2.6,5.7,5.7,5.7l141.7,0c3.2,0,5.7-2.6,5.7-5.7
				C4576.1,3146.8,4573.6,3144.3,4570.4,3144.3z"/>
		</g>
		<path class="st39" d="M4398.2,2801.6c-14,0-25.3,11.3-25.3,25.3v253.4c0,14,11.3,25.3,25.3,25.3h20.8c2.5,0,4.6-2.1,4.6-4.6v-8.1
			h152v8.1c0,2.5,2.1,4.6,4.6,4.6h20.8c14,0,25.3-11.3,25.3-25.3v-253.4c0-14-11.3-25.3-25.3-25.3L4398.2,2801.6L4398.2,2801.6z"/>
		<g>
			<path class="st40" d="M4408.2,3105.6h10.7c2.5,0,4.6-2.1,4.6-4.6v-8.1h-15.3V3105.6z"/>
			<path class="st40" d="M4600.9,2801.6h-15.3c14,0,25.3,11.3,25.3,25.3v253.4c0,14-11.3,25.3-25.3,25.3h15.3
				c14,0,25.3-11.3,25.3-25.3v-253.4C4626.2,2812.9,4614.9,2801.6,4600.9,2801.6z"/>
		</g>
		<rect x="4372.8" y="2852.3" class="st37" width="253.4" height="152"/>
		<path class="st41" d="M4602.6,2985.3h-206.2c-2.5,0-4.6-2.1-4.6-4.6v-104.9c0-2.5,2.1-4.6,4.6-4.6h206.2c2.5,0,4.6,2.1,4.6,4.6
			v104.9C4607.2,2983.2,4605.2,2985.3,4602.6,2985.3z"/>
		<g>
			<path class="st42" d="M4436.2,3048.6c7,0,12.7-5.7,12.7-12.7s-5.7-12.7-12.7-12.7h-25.3c-7,0-12.7,5.7-12.7,12.7
				s5.7,12.7,12.7,12.7H4436.2z"/>
			<path class="st42" d="M4588.2,3048.6c7,0,12.7-5.7,12.7-12.7s-5.7-12.7-12.7-12.7h-25.3c-7,0-12.7,5.7-12.7,12.7
				s5.7,12.7,12.7,12.7H4588.2z"/>
		</g>
		<rect x="4610.9" y="2852.3" class="st38" width="15.3" height="152"/>
		<path class="st42" d="M4458,2788.9h83c1.7,0,3.3,1,4.1,2.5l4.6,9.2c0.3,0.6,0.5,1.3,0.5,2.1v19.7c0,2.5-2.1,4.6-4.6,4.6h-92.2
			c-2.5,0-4.6-2.1-4.6-4.6v-19.7c0-0.7,0.2-1.4,0.5-2.1l4.6-9.2C4454.7,2789.9,4456.3,2788.9,4458,2788.9z"/>
		<path class="st43" d="M4549.7,2800.6l-4.6-9.2c-0.8-1.6-2.4-2.5-4.1-2.5h-15.3c1.7,0,3.3,1,4.1,2.5l4.6,9.2
			c0.3,0.6,0.5,1.3,0.5,2.1v19.7c0,2.5-2.1,4.6-4.6,4.6h15.3c2.5,0,4.6-2.1,4.6-4.6v-19.7C4550.2,2801.9,4550,2801.2,4549.7,2800.6z
			"/>
		<path class="st39" d="M4499.5,2807.3c3.2,0,5.7-2.6,5.7-5.7v-12.7l0,0h-11.5l0,0v12.7C4493.8,2804.7,4496.4,2807.3,4499.5,2807.3z
			"/>
		<path class="st44" d="M4602.6,2871.3h-15.3c2.5,0,4.6,2.1,4.6,4.6v104.9c0,2.5-2.1,4.6-4.6,4.6h15.3c2.5,0,4.6-2.1,4.6-4.6v-104.9
			C4607.2,2873.3,4605.2,2871.3,4602.6,2871.3z"/>
		<g>
			<path class="st43" d="M4588.2,3023.3h-15.3c7,0,12.7,5.7,12.7,12.7s-5.7,12.7-12.7,12.7h15.3c7,0,12.7-5.7,12.7-12.7
				S4595.2,3023.3,4588.2,3023.3z"/>
			<path class="st43" d="M4435.9,3023.3h-15.3c7,0,12.7,5.7,12.7,12.7s-5.7,12.7-12.7,12.7h15.3c7,0,12.7-5.7,12.7-12.7
				S4442.9,3023.3,4435.9,3023.3z"/>
		</g>
		<path class="st45" d="M4626.2,3073.4v-11.5l0,0h-85.6l-11-16.5c-1.1-1.6-2.9-2.6-4.8-2.6h-50.7c-1.9,0-3.7,1-4.8,2.6l-11,16.5
			l-85.6,0v11.5l88.7,0c1.9,0,3.7-1,4.8-2.6l11-16.5h44.5l11,16.5c1.1,1.6,2.9,2.6,4.8,2.6L4626.2,3073.4L4626.2,3073.4z"/>
	</g>
</g>
<g id="Layer_2">
</g>
</svg>
